# xmcd
#
# Track frame offsets: 
#        150
#        16086
#        37124
#        59338
#        77779
#        103877
#        123831
#        155113
#
# Disc length: 2519 seconds
#
# Revision: 1
# Processed by: cddbd v1.5.2PL0 Copyright (c) Steve Scherf et al.
# Submitted via: ExactAudioCopy v0.99pb3
#
DISCID=6409d508
DTITLE=Maynard Ferguson - M.F. Horn Two
DYEAR=1972
DGENRE=Jazz
TTITLE0=Give It One
TTITLE1=Country Road
TTITLE2=Theme From "Shaft"
TTITLE3=Theme From "Summer of '42"
TTITLE4=Mother
TTITLE5=Spinning Wheel
TTITLE6=Free Wheeler
TTITLE7=Hey Jude
EXTD=YEAR: 1972
EXTT0=
EXTT1=
EXTT2=
EXTT3=
EXTT4=
EXTT5=
EXTT6=
EXTT7=
PLAYORDER=
